<svg xmlns="http://www.w3.org/2000/svg" xmlns:xlink="http://www.w3.org/1999/xlink" version="1.1" x="0px" y="0px" viewBox="0 0 100 100" enable-background="new 0 0 100 100" xml:space="preserve"><rect fill="none" width="100" height="100"/><rect x="11" y="92" width="78" height="3"/><path d="M14,91h72c0-2-1-4-2-4c-1-5-2-6-5-7c-1-3-3-4-6-4c-1-3-2-5-4-5s-2,0-2,0l-1-2H31l-1,2l-2,3c0,0-2,1-3,2s-2,3-4,4s-2,5-2,5  C16,86,14,88,14,91z"/><polygon points="59,65 49,65 38,65 37,68 49,68 60,68 "/><polyline points="57,64 56,52 41,52 40,64 "/><g><path d="M49,51h1V38.2c-0.3-0.2-0.7-0.5-1-0.7V51z"/><path d="M52,39.9c-0.3-0.3-0.7-0.6-1-0.9v12h1V39.9z"/><path d="M47,51h1V37c-0.3-0.2-0.7-0.3-1-0.5V51z"/><path d="M53,40.9V51h1v-8C54,42.4,53.6,41.6,53,40.9z"/><path d="M44,35.3c-0.6-0.2-1-0.3-1-0.3v16h1V35.3z"/><path d="M45,51h1V36.1c-0.3-0.1-0.7-0.3-1-0.4V51z"/></g><path d="M54,42c0-2-4-5-6-6s-5-2-5-2v-6l-1-1l1-8c0,0-4-1-5-1s-3,0-3,0l-3-4c0,0-3,0-4,0c-1.1,0-2-0.4-2-1s0.9-1,2-1c1,0,4,1,6,1  s5-1,14-1c0,0,1,0,1,0c5,0,9,2,11,2s8-1,9-1c1.1,0,2,0.4,2,1s-0.9,1-2,1c-1,0-4,0-4,0l-3,3c0,0-2,0-3,0s-5,1-5,1c0,4,0,6,0,10  S54,42,54,42z"/><g><path d="M49,11c0.7,0,1.4,0,2,0.1V7c0-1.1-0.9-2-2-2s-2.3,0.5-2.5,2L46,11c0.3,0,1.7,0,2,0H49z"/></g></svg>
